<?xml version="1.0" encoding="UTF-8"?>
<svg xmlns="http://www.w3.org/2000/svg" viewBox="0 0 1600 900" preserveAspectRatio="xMidYMid slice">
  <defs>
    <linearGradient id="milkyBand" gradientUnits="userSpaceOnUse" x1="80" y1="120" x2="1520" y2="780">
      <stop offset="0%" stop-color="rgba(255,255,255,0)"/><stop offset="22%" stop-color="rgba(37,99,235,0.015)"/><stop offset="40%" stop-color="rgba(71,85,105,0.035)"/><stop offset="50%" stop-color="rgba(51,65,85,0.05)"/><stop offset="60%" stop-color="rgba(37,99,235,0.03)"/><stop offset="78%" stop-color="rgba(255,255,255,0)"/>
    </linearGradient>
    <linearGradient id="milkyCore" gradientUnits="userSpaceOnUse" x1="400" y1="300" x2="1200" y2="600">
      <stop offset="0%" stop-color="rgba(255,255,255,0)"/>
      <stop offset="45%" stop-color="rgba(51,65,85,0.04)"/>
      <stop offset="55%" stop-color="rgba(51,65,85,0.05)"/>
      <stop offset="100%" stop-color="rgba(255,255,255,0)"/>
    </linearGradient>
    <filter id="bandSoft" x="-15%" y="-40%" width="130%" height="180%">
      <feGaussianBlur stdDeviation="8"/>
    </filter>
    <filter id="bandHaze" x="-25%" y="-50%" width="150%" height="200%">
      <feGaussianBlur stdDeviation="28"/>
    </filter>
    <filter id="grain" x="0" y="0" width="100%" height="100%">
      <feTurbulence type="fractalNoise" baseFrequency="0.9" numOctaves="3" seed="4" result="n"/>
      <feColorMatrix type="matrix" values="0 0 0 0 1  0 0 0 0 1  0 0 0 0 1  0 0 0 0.035 0" in="n" result="g"/>
      <feBlend in="SourceGraphic" in2="g" mode="screen"/>
    </filter>
  </defs>
  <g transform="rotate(-22 800 450)" filter="url(#grain)">
    <rect x="-200" y="280" width="2000" height="340" fill="url(#milkyBand)" filter="url(#bandHaze)" opacity="0.75"/>
    <rect x="100" y="340" width="1400" height="220" fill="url(#milkyCore)" filter="url(#bandSoft)" opacity="0.65"/>
    <ellipse cx="412.5" cy="514.5" rx="44.5" ry="7.1" transform="rotate(-24.89 412.5 514.5)" fill="rgba(0,0,0,0.128)"/>
    <ellipse cx="453.0" cy="517.9" rx="139.6" ry="8.3" transform="rotate(-24.79 453.0 517.9)" fill="rgba(0,0,0,0.082)"/>
    <ellipse cx="493.5" cy="417.7" rx="101.1" ry="4.4" transform="rotate(-25.55 493.5 417.7)" fill="rgba(0,0,0,0.087)"/>
    <ellipse cx="562.8" cy="454.3" rx="108.2" ry="7.5" transform="rotate(-22.01 562.8 454.3)" fill="rgba(0,0,0,0.085)"/>
    <ellipse cx="624.5" cy="419.8" rx="88.7" ry="6.7" transform="rotate(-23.61 624.5 419.8)" fill="rgba(0,0,0,0.077)"/>
    <ellipse cx="685.7" cy="474.1" rx="111.1" ry="10.7" transform="rotate(-23.72 685.7 474.1)" fill="rgba(0,0,0,0.070)"/>
    <ellipse cx="769.8" cy="467.0" rx="51.3" ry="7.6" transform="rotate(-21.64 769.8 467.0)" fill="rgba(0,0,0,0.085)"/>
    <ellipse cx="812.1" cy="515.7" rx="89.6" ry="9.3" transform="rotate(-24.44 812.1 515.7)" fill="rgba(0,0,0,0.099)"/>
    <ellipse cx="881.9" cy="478.2" rx="151.0" ry="9.2" transform="rotate(-22.98 881.9 478.2)" fill="rgba(0,0,0,0.132)"/>
  </g>
</svg>